<svg viewBox="0 0 512 512" fill="none" xmlns="http://www.w3.org/2000/svg">
  <path
    d="M234 64c-94 0-170 76-170 170s76 170 170 170c35.7 0 68.9-11 96.3-29.8l61.7 61.7c12.1 12.1 31.7 12.1 43.8 0s12.1-31.7 0-43.8l-61.7-61.7C393 302.9 404 269.7 404 234c0-94-76-170-170-170Zm0 56c63.1 0 114 50.9 114 114s-50.9 114-114 114-114-50.9-114-114 50.9-114 114-114Z"
    fill="currentColor"
  />
  <path
    d="M225.1 144.3c4.7-11 20.3-11 25 0l18.2 42.8c1.4 3.4 4.1 6 7.4 7.4l42.8 18.2c11 4.7 11 20.3 0 25l-42.8 18.2c-3.4 1.4-6 4.1-7.4 7.4l-18.2 42.8c-4.7 11-20.3 11-25 0l-18.2-42.8c-1.4-3.4-4.1-6-7.4-7.4l-42.8-18.2c-11-4.7-11-20.3 0-25l42.8-18.2c3.4-1.4 6-4.1 7.4-7.4l18.2-42.8Z"
    fill="currentColor"
    opacity=".88"
  />
  <path
    d="M315.7 91.2c7.1-6.8 19-1.8 19 8v35.1c0 28.1-22.8 50.9-50.9 50.9h-35.1c-9.8 0-14.9-11.9-8-19l75-75Z"
    fill="currentColor"
    opacity=".28"
  />
</svg>
